<?xml version="1.0" standalone="no"?><!DOCTYPE svg PUBLIC "-//W3C//DTD SVG 1.1//EN" "http://www.w3.org/Graphics/SVG/1.1/DTD/svg11.dtd"><svg t="1707113839514" class="icon" viewBox="0 0 1024 1024" version="1.1" xmlns="http://www.w3.org/2000/svg" p-id="47133" xmlns:xlink="http://www.w3.org/1999/xlink" width="200" height="200"><path d="M148.559585 0v721.57513c0 81.230259 65.19113 147.227855 146.103047 148.538362L297.119171 870.134715h573.015544v-0.005306l153.865285 0.005306v74.279793l-79.585492-0.005306V1024h-74.279793v-79.585492H297.119171c-123.071005 0-222.839378-99.768373-222.839378-222.839378V148.55428L0 148.559585V74.279793l74.279793-0.005306V0h74.279792z m546.487047 196.310881c70.327047 0 127.336788 57.009741 127.336788 127.336787v498.735752L196.310881 196.310881h498.735751z m26.528498-122.031088c123.071005 0 222.839378 99.768373 222.839378 222.839378v498.730446h-74.279793V297.119171c0-81.230259-65.19113-147.227855-146.103047-148.538363L721.57513 148.559585H222.839378V74.279793h498.735752z" fill="#333333" p-id="47134"></path></svg>