<?xml version="1.0" standalone="no"?><!DOCTYPE svg PUBLIC "-//W3C//DTD SVG 1.1//EN" "http://www.w3.org/Graphics/SVG/1.1/DTD/svg11.dtd"><svg t="1707113230467" class="icon" viewBox="0 0 1024 1024" version="1.1" xmlns="http://www.w3.org/2000/svg" p-id="36690" xmlns:xlink="http://www.w3.org/1999/xlink" width="200" height="200"><path d="M895.943111 0H384a128 128 0 0 0-127.943111 127.943111V256H127.943111A128 128 0 0 0 0 384v512A128 128 0 0 0 127.943111 1024h512.056889a128 128 0 0 0 127.943111-128V768h128.056889A128 128 0 0 0 1024 640V128.056889A128 128 0 0 0 895.943111 0z m-192 896c0 35.441778-28.615111 64-63.943111 64H127.943111c-35.271111 0-63.943111-28.558222-63.943111-64V384.056889c0-35.384889 28.672-64 63.943111-64h128.113778v319.943111A128 128 0 0 0 384 768h319.943111v128z" fill="#333333" p-id="36691"></path></svg>