<?xml version="1.0" standalone="no"?><!DOCTYPE svg PUBLIC "-//W3C//DTD SVG 1.1//EN" "http://www.w3.org/Graphics/SVG/1.1/DTD/svg11.dtd"><svg t="1707119487416" class="icon" viewBox="0 0 1024 1024" version="1.1" xmlns="http://www.w3.org/2000/svg" p-id="6235" xmlns:xlink="http://www.w3.org/1999/xlink" width="200" height="200"><path d="M704 64c117.824 0 213.333333 95.509333 213.333333 213.333333v490.666667c0 117.824-95.509333 213.333333-213.333333 213.333333H320C202.176 981.333333 106.666667 885.824 106.666667 768V277.333333C106.666667 159.509333 202.176 64 320 64h384z m0 74.666667H320a138.666667 138.666667 0 0 0-138.581333 133.696L181.333333 277.333333v490.666667a138.666667 138.666667 0 0 0 133.696 138.581333L320 906.666667h384a138.666667 138.666667 0 0 0 138.581333-133.696L842.666667 768V277.333333a138.666667 138.666667 0 0 0-133.696-138.581333L704 138.666667z" fill="#000000" p-id="6236"></path><path d="M618.666667 730.666667a37.333333 37.333333 0 0 1 3.072 74.538666L618.666667 805.333333H405.333333a37.333333 37.333333 0 0 1-3.072-74.538666L405.333333 730.666667h213.333334z" fill="#000000" p-id="6237"></path></svg>