<?xml version="1.0" standalone="no"?><!DOCTYPE svg PUBLIC "-//W3C//DTD SVG 1.1//EN" "http://www.w3.org/Graphics/SVG/1.1/DTD/svg11.dtd"><svg t="1707119894897" class="icon" viewBox="0 0 1024 1024" version="1.1" xmlns="http://www.w3.org/2000/svg" p-id="18893" xmlns:xlink="http://www.w3.org/1999/xlink" width="200" height="200"><path d="M566.446451 30.031087a467.343774 467.343774 0 0 0 234.783037 105.108804 711.977007 711.977007 0 0 0 109.012845 7.928207 31.592703 31.592703 0 0 1 31.472579 29.370403c3.964103 54.055956 1.561617 108.111913 2.522611 162.588304 0.660684 37.178486 0.54056 74.417033-1.861927 111.535457-6.426653 99.282773-22.763564 196.403308-66.909262 286.736817a518.937181 518.937181 0 0 1-184.991495 208.05537A755.462021 755.462021 0 0 1 523.862369 1022.017948a35.436683 35.436683 0 0 1-23.244061 0c-98.742214-34.235439-188.775412-82.8858-261.991202-159.044636C171.477596 792.820693 129.554199 709.334272 106.190013 615.817467A875.165933 875.165933 0 0 1 83.786822 473.59024C76.218989 380.433808 80.783714 287.217315 80.603527 194.000821a183.309754 183.309754 0 0 1 1.38143-18.979647 36.878175 36.878175 0 0 1 37.959294-31.712827A714.739867 714.739867 0 0 0 223.551501 135.260015 469.085577 469.085577 0 0 0 456.052175 31.592703 248.176902 248.176902 0 0 1 490.107428 6.006217a44.506071 44.506071 0 0 1 44.746319 0.54056A243.371928 243.371928 0 0 1 566.446451 30.031087zM155.320871 351.664027a960.274034 960.274034 0 0 0 3.723855 132.136782 687.291454 687.291454 0 0 0 32.793947 162.528243 440.135609 440.135609 0 0 0 136.641445 199.22623 601.642794 601.642794 0 0 0 176.582791 99.162649 20.661388 20.661388 0 0 0 15.496041-0.660684 658.221362 658.221362 0 0 0 127.992492-63.906153 446.742448 446.742448 0 0 0 183.850314-234.602851c28.229222-81.864743 35.37662-166.912781 38.019356-252.261129 1.681741-55.437386-1.861927-110.934835-1.681741-166.432284 0-7.267523-2.282363-9.730072-9.67001-10.150507a719.004282 719.004282 0 0 1-91.414628-10.931316 529.087688 529.087688 0 0 1-248.11684-117.841985 9.489823 9.489823 0 0 0-15.015544 0A527.105637 527.105637 0 0 1 388.662416 162.768491c-70.693178 33.754942-145.951082 48.650361-223.55141 53.455334-7.207461 0.480497-9.970321 2.522611-9.910259 9.970321 0.240249 41.923397 0.120124 83.666608 0.120124 125.469881z" p-id="18894"></path><path d="M362.054873 472.328934A37.839169 37.839169 0 0 1 391.725587 485.302364c21.021761 21.081823 42.043522 42.043522 63.00522 63.245469 6.006217 6.006217 9.489823 5.585782 15.19573 0Q549.749166 467.944396 629.932168 388.001642c15.075606-15.075606 32.073201-24.024869 60.062174-4.14429a29.670714 29.670714 0 0 1 4.804974 43.665201c-15.73629 17.718341-33.034196 33.99519-49.73148 50.752536L493.230661 629.99214c-21.322072 21.26201-41.022465 21.26201-62.404599 0-30.751833-30.691771-61.683852-61.263417-92.135374-92.195436-20.72145-21.021761-15.435979-52.374215 10.030383-62.945158a28.169159 28.169159 0 0 1 13.333802-2.522612z" p-id="18895"></path></svg>