<?xml version="1.0" standalone="no"?><!DOCTYPE svg PUBLIC "-//W3C//DTD SVG 1.1//EN" "http://www.w3.org/Graphics/SVG/1.1/DTD/svg11.dtd"><svg t="1707120088209" class="icon" viewBox="0 0 1024 1024" version="1.1" xmlns="http://www.w3.org/2000/svg" p-id="24520" xmlns:xlink="http://www.w3.org/1999/xlink" width="200" height="200"><path d="M512 64a192 192 0 0 1 191.68 180.736L704 256c0-2.432 0-4.864-0.128-7.232a352 352 0 0 1 159.872 281.088l0.192 7.808-1.152-0.64a192 192 0 1 1-203.648 325.184l1.472 0.96A350.72 350.72 0 0 1 512 896a350.72 350.72 0 0 1-148.608-32.832l1.28-0.896A192 192 0 0 1 160.64 537.28l-0.512 0.32-0.128 6.4c0-123.648 63.744-232.448 160.192-295.232L320 256a192 192 0 0 1 192-192zM256 576a128 128 0 1 0 0 256 128 128 0 0 0 0-256z m512 0a128 128 0 1 0 0 256 128 128 0 0 0 0-256z m-74.88-256l-0.32 0.768a192.064 192.064 0 0 1-361.6 0L330.88 320a287.36 287.36 0 0 0-105.472 194.432l8.128-1.216a192 192 0 0 1 179.2 301.568l0.256-0.448a287.68 287.68 0 0 0 189.952 2.88l7.936-2.88a192 192 0 0 1 188.288-299.904l-0.768-0.064A287.36 287.36 0 0 0 693.12 320zM512 128a128 128 0 1 0 0 256 128 128 0 0 0 0-256z" fill="#676870" p-id="24521"></path></svg>