<?xml version="1.0" standalone="no"?><!DOCTYPE svg PUBLIC "-//W3C//DTD SVG 1.1//EN" "http://www.w3.org/Graphics/SVG/1.1/DTD/svg11.dtd"><svg t="1706595930248" class="icon" viewBox="0 0 1024 1024" version="1.1" xmlns="http://www.w3.org/2000/svg" p-id="5877" xmlns:xlink="http://www.w3.org/1999/xlink" width="200" height="200"><path d="M671.5 480H428.7l90.3-90.3c12.5-12.5 12.5-32.8 0-45.3-6.2-6.2-14.4-9.4-22.6-9.4-8.2 0-16.4 3.1-22.6 9.4l-145 145-1.1 1.1c-0.2 0.2-0.3 0.4-0.5 0.6-0.2 0.2-0.4 0.4-0.5 0.6-0.2 0.2-0.4 0.5-0.6 0.7-0.1 0.2-0.3 0.3-0.4 0.5-0.2 0.3-0.4 0.6-0.6 0.8-0.1 0.1-0.2 0.3-0.3 0.4l-0.6 0.9c-0.1 0.1-0.2 0.3-0.3 0.4-0.2 0.3-0.3 0.6-0.5 0.9-0.1 0.2-0.2 0.3-0.3 0.5-0.1 0.3-0.3 0.6-0.4 0.8l-0.3 0.6c-0.1 0.3-0.2 0.5-0.3 0.8-0.1 0.2-0.2 0.5-0.3 0.7-0.1 0.2-0.2 0.5-0.3 0.7-0.1 0.3-0.2 0.5-0.3 0.8-0.1 0.2-0.1 0.4-0.2 0.6l-0.3 0.9c-0.1 0.2-0.1 0.4-0.2 0.5-0.1 0.3-0.2 0.6-0.3 1 0 0.2-0.1 0.3-0.1 0.5-0.1 0.3-0.2 0.7-0.2 1 0 0.2-0.1 0.3-0.1 0.5-0.1 0.3-0.1 0.7-0.2 1 0 0.2-0.1 0.4-0.1 0.6 0 0.3-0.1 0.6-0.1 0.9 0 0.3 0 0.5-0.1 0.8 0 0.3 0 0.5-0.1 0.8v3.2c0 0.3 0 0.5 0.1 0.8 0 0.3 0 0.5 0.1 0.8 0 0.3 0.1 0.6 0.1 0.9 0 0.2 0 0.4 0.1 0.6 0 0.3 0.1 0.7 0.2 1 0 0.2 0.1 0.3 0.1 0.5 0.1 0.3 0.1 0.7 0.2 1 0 0.2 0.1 0.3 0.1 0.5 0.1 0.3 0.2 0.6 0.3 1 0.1 0.2 0.1 0.4 0.2 0.5l0.3 0.9c0.1 0.2 0.1 0.4 0.2 0.6 0.1 0.3 0.2 0.5 0.3 0.8 0.1 0.2 0.2 0.5 0.3 0.7 0.1 0.2 0.2 0.5 0.3 0.7 0.1 0.3 0.2 0.5 0.3 0.8l0.3 0.6c0.1 0.3 0.3 0.6 0.4 0.8 0.1 0.2 0.2 0.3 0.3 0.5 0.2 0.3 0.3 0.6 0.5 0.9 0.1 0.1 0.2 0.3 0.3 0.4l0.6 0.9c0.1 0.1 0.2 0.3 0.3 0.4 0.2 0.3 0.4 0.6 0.6 0.8 0.1 0.2 0.3 0.3 0.4 0.5 0.2 0.2 0.4 0.5 0.6 0.7 0.2 0.2 0.4 0.4 0.5 0.6 0.2 0.2 0.3 0.4 0.5 0.6 0.4 0.4 0.7 0.8 1.1 1.1l144.9 144.9c6.2 6.2 14.4 9.4 22.6 9.4 8.2 0 16.4-3.1 22.6-9.4 12.5-12.5 12.5-32.8 0-45.3l-90.2-90h242.7c17.7 0 32-14.3 32-32 0.1-17.7-14.3-32-31.9-32z" p-id="5878" fill="#000000"></path><path d="M512 64.7C264.9 64.7 64.7 264.9 64.7 512S264.9 959.3 512 959.3 959.3 759.1 959.3 512 759.1 64.7 512 64.7z m271.1 718.4c-35.2 35.2-76.2 62.9-121.9 82.2-47.2 20-97.4 30.1-149.2 30.1s-102-10.1-149.2-30.1c-45.6-19.3-86.6-47-121.9-82.2-35.2-35.2-62.9-76.2-82.2-121.9-20-47.2-30.1-97.4-30.1-149.2s10.1-102 30.1-149.2c19.3-45.6 47-86.6 82.2-121.9 35.2-35.2 76.2-62.9 121.9-82.2 47.2-20 97.4-30.1 149.2-30.1s102 10.1 149.2 30.1c45.6 19.3 86.6 47 121.9 82.2 35.2 35.2 62.9 76.2 82.2 121.9 20 47.2 30.1 97.4 30.1 149.2s-10.1 102-30.1 149.2c-19.4 45.6-47 86.6-82.2 121.9z" p-id="5879" fill="#000000"></path></svg>