<?xml version="1.0" standalone="no"?><!DOCTYPE svg PUBLIC "-//W3C//DTD SVG 1.1//EN" "http://www.w3.org/Graphics/SVG/1.1/DTD/svg11.dtd"><svg t="1706079694728" class="icon" viewBox="0 0 1024 1024" version="1.1" xmlns="http://www.w3.org/2000/svg" p-id="7029" xmlns:xlink="http://www.w3.org/1999/xlink" width="200" height="200"><path d="M512.3 63.9c-247.2 0-447.6 200.4-447.6 447.6S265.1 959 512.3 959s447.6-200.4 447.6-447.6S759.5 63.9 512.3 63.9z m201.4 591.4c15.9 15.9 15.9 41.7 0 57.5-15.9 15.9-41.7 15.9-57.5 0L512.3 569 368.4 712.8c-15.9 15.9-41.7 15.9-57.5 0-15.9-15.9-15.9-41.7 0-57.5l143.9-143.9-143.9-143.8c-15.9-15.9-15.9-41.7 0-57.5 15.9-15.9 41.7-15.9 57.5 0L512.3 454l143.8-144c15.9-15.9 41.7-15.9 57.5 0 15.9 15.9 15.9 41.7 0 57.5L569.8 511.4l143.9 143.9z" fill="#2c2c2c" p-id="7030"></path></svg>